<svg width="319" height="88" viewBox="0 0 319 88" fill="none" xmlns="http://www.w3.org/2000/svg">
<mask id="mask0_13_889" style="mask-type:luminance" maskUnits="userSpaceOnUse" x="0" y="0" width="97" height="88">
<path d="M89.9984 47.4548C88.4692 49.6338 86.6428 51.7896 84.5809 53.8918C84.409 54.0788 84.2201 54.267 84.0319 54.4477C83.8443 54.636 83.6566 54.8167 83.4678 55.0049C83.4678 54.7462 83.452 54.4874 83.4287 54.2211C83.4212 53.9623 83.4048 53.7035 83.3897 53.4372C83.3897 53.4127 83.3822 53.3818 83.3822 53.3573C82.723 46.5066 80.403 39.5999 76.9617 33.3587C76.7653 33.0067 76.5695 32.6542 76.3661 32.3003C76.1609 31.9484 75.9575 31.6027 75.7466 31.2501C75.0257 30.0589 74.2564 28.898 73.4568 27.7697V27.7622C73.1987 27.4083 72.9475 27.0564 72.6812 26.7025C72.4149 26.3412 72.1404 25.981 71.8577 25.6203V25.6121C69.5459 22.6416 66.9741 19.9532 64.2297 17.6395C63.7991 17.6011 63.3678 17.5614 62.9284 17.5312C61.5339 17.4204 60.1223 17.3499 58.7184 17.3347C64.0415 20.9084 68.8943 26.0994 72.6422 32.1045C72.8531 32.4338 73.0495 32.7555 73.2453 33.0924C73.4411 33.4141 73.63 33.7352 73.8182 34.0645C74.4371 35.1549 75.0169 36.2681 75.5577 37.3963C75.7227 37.7256 75.8795 38.0549 76.028 38.3917V38.3992C76.1924 38.738 76.3416 39.0748 76.4826 39.411V39.4192C78.4664 43.9895 79.7917 48.8191 80.2538 53.6255C80.3249 54.5428 80.3558 55.4356 80.3482 56.3063C80.3482 56.5726 80.34 56.8314 80.3318 57.0908C80.3167 57.3647 80.3086 57.6385 80.2853 57.9124C80.0813 58.0856 79.8697 58.2663 79.6582 58.4381C79.4467 58.6188 79.2351 58.7989 79.0229 58.9708C75.4639 61.9028 71.4818 64.6623 67.2485 67.1562C66.9199 67.3526 66.5894 67.5484 66.2525 67.7367C65.9472 67.9161 65.6406 68.0893 65.3277 68.2618C65.5002 67.9482 65.6721 67.6265 65.8528 67.2972C66.0177 66.983 66.1827 66.662 66.3464 66.3402C70.0395 59.1666 73.057 50.6613 74.8992 41.6379C75.0408 40.9315 75.1661 40.2352 75.2757 39.5369C75.2606 39.5048 75.2442 39.4746 75.2291 39.4419C75.1107 39.1755 74.9943 38.9017 74.8684 38.6353C74.704 38.2664 74.5234 37.8987 74.3433 37.5298C74.2174 37.271 74.0921 37.0116 73.9517 36.761C73.9347 36.7302 73.9202 36.6981 73.9032 36.6678C73.8333 36.5344 73.7628 36.3933 73.6923 36.2605C73.5594 37.8987 73.324 39.5596 72.979 41.2457C70.9486 51.2487 67.4601 60.5863 63.2809 68.066C63.1015 68.3858 62.9284 68.7 62.7489 69.006C62.5601 69.3277 62.3806 69.6418 62.1924 69.9541C61.8782 70.1191 61.5565 70.2847 61.2436 70.4332C60.8904 70.6216 60.5378 70.7928 60.1771 70.9659C58.6403 71.7271 57.0802 72.4487 55.505 73.1215C55.199 73.2551 54.9018 73.381 54.6028 73.5065C54.3056 73.6316 54.0072 73.7494 53.7094 73.8741C52.1651 74.5017 50.6125 75.089 49.0537 75.6375C48.7634 75.7327 48.4732 75.834 48.183 75.9365C47.8928 76.0298 47.6025 76.1242 47.3123 76.2255C42.5854 77.7631 38.7279 78.8839 31.7201 79.6676C31.5161 79.4962 31.3039 79.3157 31.1006 79.1349C30.9048 78.9542 30.7165 78.783 30.5201 78.6017C22.775 71.4607 15.0614 59.3473 10.2168 45.6359C9.69172 44.1456 9.24472 42.6572 8.89908 41.1827C8.39794 41.9823 7.93519 42.7983 7.51211 43.63C7.77087 44.507 8.0523 45.4016 8.36646 46.2862C13.0776 59.6218 20.2901 71.2876 27.8085 78.7277C28.0037 78.9311 28.2001 79.12 28.3959 79.3081C28.5923 79.5038 28.7957 79.6923 28.9915 79.8715C28.7252 79.888 28.4664 79.8961 28.2077 79.9037C27.9099 79.9037 27.6121 79.9111 27.3219 79.9111H27.2438C18.2521 79.9111 10.961 76.728 6.72011 70.9509C2.43142 65.1169 1.58525 57.0581 4.33715 48.2707C4.84648 46.6476 5.48928 45.0629 6.25737 43.5198C6.38265 43.2528 6.51612 42.9941 6.65777 42.7353C6.79061 42.4772 6.93164 42.226 7.07267 41.9747C7.52723 41.16 8.01326 40.3592 8.54651 39.5753C8.69572 39.3487 8.84494 39.122 9.00926 38.8941C9.16539 38.6675 9.32279 38.4389 9.48711 38.2198C11.855 34.9818 14.7787 31.9943 18.1577 29.3374C18.4007 29.1416 18.6519 28.9534 18.8943 28.7651C19.1455 28.5769 19.3885 28.3886 19.6391 28.2079C19.561 28.5064 19.4823 28.8048 19.4118 29.1019C19.3413 29.3928 19.279 29.6824 19.2236 29.9809C18.8943 31.5165 18.6909 33.1075 18.5965 34.7551C17.3348 50.5121 29.8232 67.7367 47.3595 74.9796C48.8887 74.471 50.4092 73.9213 51.9302 73.3256C51.5531 73.1997 51.1691 73.0669 50.7863 72.9258C33.2802 66.7646 20.518 50.1129 21.7249 34.966C21.8816 32.175 22.4149 29.5414 23.2768 27.1345C23.3788 26.8285 23.489 26.5294 23.6143 26.2404C23.7314 25.9263 23.8642 25.6203 24.0065 25.3155C24.3043 25.1349 24.6021 24.9617 24.8992 24.7823C25.2134 24.6091 25.5351 24.4291 25.848 24.2559C34.1975 19.6548 44.1612 16.7467 54.5562 16.2292C54.9403 16.2122 55.3325 16.1971 55.7172 16.1819C56.0924 16.1744 56.4695 16.1662 56.8454 16.1587C57.191 16.1498 57.5278 16.1498 57.8728 16.1498C59.448 16.1498 61.0314 16.2122 62.5922 16.323C62.7326 16.3305 62.8818 16.3456 63.0228 16.3545C63.235 16.3702 63.4383 16.3853 63.6423 16.4086C63.9873 16.4401 64.3317 16.4709 64.6767 16.5112C65.9623 16.6441 67.2171 16.8078 68.4397 17.0036C68.6909 17.0439 68.9415 17.0835 69.1927 17.1295C69.4433 17.1692 69.6938 17.2164 69.945 17.263C70.0709 17.4833 70.1887 17.7018 70.2982 17.9228C70.4235 18.1419 70.5331 18.3685 70.6432 18.5965C71.6619 20.6666 72.4375 22.8607 72.9632 25.1745V25.1821C73.8723 26.3506 74.7355 27.5657 75.5577 28.8123C75.1976 25.3861 74.3508 22.1323 73.0413 19.1215C72.9557 18.8936 72.8531 18.667 72.736 18.4479C72.6497 18.22 72.5402 18.0009 72.43 17.7805C72.673 17.8277 72.916 17.8907 73.1597 17.9455C73.4027 18.0084 73.6451 18.0714 73.8881 18.1343C83.2166 20.5318 89.9587 24.9542 92.6559 30.7018C95.0388 35.7902 94.1215 41.5825 89.9984 47.4548ZM62.623 72.7849C62.9598 72.6122 63.3048 72.4403 63.6347 72.2598C63.9873 72.079 64.3405 71.8983 64.6849 71.7025C69.459 69.1545 74.014 66.2622 78.1214 63.1494C78.3883 62.9454 78.6546 62.7421 78.9134 62.5305C79.1728 62.3347 79.4315 62.1389 79.6815 61.9349C79.611 62.2491 79.5247 62.5614 79.4315 62.8749C79.3365 63.2042 79.2351 63.5335 79.1174 63.8552C78.326 66.106 77.1651 68.0735 75.6358 69.7275C72.469 73.1449 67.9298 74.9961 62.4902 75.089C62.3404 75.0974 62.1842 75.0974 62.035 75.0974H61.7372C61.5181 75.089 61.2902 75.089 61.0629 75.074L62.623 72.7849ZM58.5308 75.3881C58.272 75.725 58.0133 76.0543 57.7551 76.3753C57.3704 76.8534 56.9858 77.3078 56.6024 77.7479C56.4538 77.9193 56.3046 78.0917 56.1478 78.2579C55.991 78.4367 55.8336 78.6099 55.6693 78.7737C52.0083 82.6784 48.183 85.0544 44.561 85.3441C44.3104 85.3591 44.0674 85.3667 43.8156 85.3667C41.4798 85.3667 38.9401 84.5294 36.3141 82.992C36.0554 82.8432 35.7966 82.6858 35.5379 82.5223C35.2942 82.3641 35.0594 82.208 34.8164 82.0444C35.0909 81.9964 35.3572 81.9568 35.6317 81.9096C35.9377 81.8636 36.2518 81.8157 36.5572 81.7535C41.4175 80.9143 46.4346 79.5191 51.4052 77.6849C51.7105 77.5747 52.0165 77.4572 52.3137 77.3482C52.6203 77.2297 52.9174 77.1121 53.2234 76.9943C54.4932 76.5012 55.7556 75.9837 57.0097 75.4267C57.4095 75.2548 57.8099 75.0817 58.2021 74.9016C58.2487 74.8783 58.2877 74.863 58.335 74.8379C58.6403 74.7051 58.9305 74.5723 59.2365 74.4311C59.127 74.5962 59.0086 74.7528 58.8921 74.909C58.7656 75.074 58.6485 75.2302 58.5308 75.3881ZM95.1414 29.5339C91.8173 22.4534 83.6567 17.3102 72.2027 14.9032C71.944 14.8478 71.6852 14.7943 71.4182 14.7395C71.1601 14.6917 70.8932 14.6369 70.6269 14.5909C70.4865 14.3624 70.3366 14.1357 70.1799 13.9154C70.0237 13.6812 69.867 13.4533 69.6938 13.2266C69.357 12.755 69.0038 12.2929 68.6355 11.8472C62.3957 4.21075 52.7846 -7.19716e-06 41.5661 -7.19716e-06C40.5707 -7.19716e-06 39.5433 0.0402798 38.5246 0.10261C26.4751 0.894646 16.692 6.10836 10.9767 14.7773C6.89261 20.9789 5.23808 28.3962 6.06975 36.3058C6.63386 35.5144 7.22943 34.7381 7.85649 33.9788C7.55115 27.3227 9.15029 21.1123 12.6155 15.8602C17.9852 7.70691 27.2362 2.80675 38.6574 2.06256C39.6301 2.00023 40.6104 1.95993 41.5661 1.95993C52.048 1.95993 61.0315 5.8093 66.896 12.818C66.9665 12.9049 67.0446 12.9987 67.1151 13.0843C67.2246 13.2191 67.3266 13.3519 67.4286 13.4854C67.6093 13.7045 67.7818 13.9311 67.9461 14.159C67.6722 14.1118 67.3971 14.0734 67.1233 14.0413C66.8481 14.0029 66.5667 13.9632 66.284 13.9311C65.2887 13.8147 64.2769 13.712 63.2425 13.6264C62.3567 13.5559 61.4709 13.5005 60.5762 13.4608C60.5693 13.4608 60.5693 13.4608 60.5693 13.4608C60.1928 13.4457 59.8163 13.43 59.4405 13.43C59.0558 13.4149 58.6718 13.4054 58.2877 13.4149C58.1467 13.4054 58.0132 13.4054 57.8728 13.4054C55.787 13.4054 53.7094 13.5005 51.6557 13.6894C51.1779 13.7271 50.707 13.7744 50.2291 13.8298C49.7192 13.8845 49.2174 13.9475 48.7162 14.0105C41.833 14.9202 35.2401 16.8248 29.2427 19.5365C28.7881 19.7329 28.3405 19.9362 27.9023 20.1566C27.4868 20.3524 27.0719 20.5564 26.6633 20.7598C26.9302 20.3908 27.2123 20.0389 27.5101 19.6945C27.8243 19.3098 28.1611 18.9408 28.5143 18.5807C32.378 14.5909 37.6148 12.23 43.5341 12.23C45.2579 12.23 47.0309 12.4352 48.7786 12.818C51.2094 12.5051 53.6779 12.3093 56.1704 12.2545C54.0154 11.164 51.8125 10.3248 49.5857 9.78459C47.5559 9.33002 45.5173 9.09392 43.5341 9.09392C34.2913 9.09392 26.499 14.064 22.187 21.8886C21.9988 22.2173 21.8187 22.5472 21.6619 22.8928C21.4976 23.2051 21.3408 23.5344 21.1998 23.8637C20.8932 24.0601 20.596 24.2477 20.2976 24.4517C19.9998 24.64 19.7178 24.8364 19.4282 25.0322C15.4536 27.7622 11.9406 30.9058 9.05585 34.3553C8.86823 34.5744 8.68754 34.8011 8.51566 35.0214C8.32742 35.2481 8.14674 35.476 7.97423 35.7027C7.37865 36.4639 6.8221 37.2477 6.28885 38.0397C6.1239 38.2828 5.96775 38.5245 5.81099 38.7682C5.64604 39.0194 5.48928 39.2782 5.33252 39.5294C3.79571 42.0528 2.57369 44.7034 1.71809 47.4472C-1.30767 57.0983 -0.3123 66.0185 4.50965 72.5814C9.28376 79.0796 17.3581 82.655 27.2438 82.655C28.231 82.655 29.2509 82.6228 30.2702 82.5525C30.5598 82.5296 30.8418 82.5065 31.1321 82.4819H31.1636C31.4305 82.4593 31.6962 82.4271 31.9625 82.3963C32.1904 82.5695 32.4177 82.7407 32.6449 82.9138C32.8886 83.0857 33.131 83.2581 33.3664 83.4155C36.9884 85.9322 40.5474 87.3266 43.8156 87.3266C44.114 87.3266 44.42 87.319 44.7102 87.2964C49.0222 86.9513 53.576 83.972 57.8489 79.1268C58.0057 78.9542 58.1618 78.7737 58.3192 78.5941C58.4684 78.4141 58.617 78.241 58.7656 78.0521C58.9935 78.0772 59.2132 78.0998 59.4405 78.1151C59.6911 78.1396 59.9423 78.1628 60.1928 78.1699C60.8123 78.2176 61.4231 78.2334 62.035 78.2334C68.5732 78.2334 74.077 76.0298 77.9338 71.8599C80.7001 68.8731 82.4642 65.0388 83.1549 60.563C83.2015 60.2722 83.2405 59.9825 83.2795 59.6841C83.311 59.4027 83.3425 59.1206 83.3664 58.8297C83.5786 58.6339 83.7895 58.4457 84.0004 58.2493C84.2056 58.061 84.409 57.8746 84.6124 57.6788C87.584 54.8872 90.1703 51.9854 92.2404 49.03C96.9672 42.304 97.9708 35.5623 95.1414 29.5339Z" fill="white"/>
</mask>
<g mask="url(#mask0_13_889)">
<path d="M89.9984 47.4548C88.4692 49.6338 86.6428 51.7896 84.5809 53.8918C84.409 54.0788 84.2201 54.267 84.0319 54.4477C83.8443 54.636 83.6566 54.8167 83.4678 55.0049C83.4678 54.7462 83.452 54.4874 83.4287 54.2211C83.4212 53.9623 83.4048 53.7035 83.3897 53.4372C83.3897 53.4127 83.3822 53.3818 83.3822 53.3573C82.723 46.5066 80.403 39.5999 76.9617 33.3587C76.7653 33.0067 76.5695 32.6542 76.3661 32.3003C76.1609 31.9484 75.9575 31.6027 75.7466 31.2501C75.0257 30.0589 74.2564 28.898 73.4568 27.7697V27.7622C73.1987 27.4083 72.9475 27.0564 72.6812 26.7025C72.4149 26.3412 72.1404 25.981 71.8577 25.6203V25.6121C69.5459 22.6416 66.9741 19.9532 64.2297 17.6395C63.7991 17.6011 63.3678 17.5614 62.9284 17.5312C61.5339 17.4204 60.1223 17.3499 58.7184 17.3347C64.0415 20.9084 68.8943 26.0994 72.6422 32.1045C72.8531 32.4338 73.0495 32.7555 73.2453 33.0924C73.4411 33.4141 73.63 33.7352 73.8182 34.0645C74.4371 35.1549 75.0169 36.2681 75.5577 37.3963C75.7227 37.7256 75.8795 38.0549 76.028 38.3917V38.3992C76.1924 38.738 76.3416 39.0748 76.4826 39.411V39.4192C78.4664 43.9895 79.7917 48.8191 80.2538 53.6255C80.3249 54.5428 80.3558 55.4356 80.3482 56.3063C80.3482 56.5726 80.34 56.8314 80.3318 57.0908C80.3167 57.3647 80.3086 57.6385 80.2853 57.9124C80.0813 58.0856 79.8697 58.2663 79.6582 58.4381C79.4467 58.6188 79.2351 58.7989 79.0229 58.9708C75.4639 61.9028 71.4818 64.6623 67.2485 67.1562C66.9199 67.3526 66.5894 67.5484 66.2525 67.7367C65.9472 67.9161 65.6406 68.0893 65.3277 68.2618C65.5002 67.9482 65.6721 67.6265 65.8528 67.2972C66.0177 66.983 66.1827 66.662 66.3464 66.3402C70.0395 59.1666 73.057 50.6613 74.8992 41.6379C75.0408 40.9315 75.1661 40.2352 75.2757 39.5369C75.2606 39.5048 75.2442 39.4746 75.2291 39.4419C75.1107 39.1755 74.9943 38.9017 74.8684 38.6353C74.704 38.2664 74.5234 37.8987 74.3433 37.5298C74.2174 37.271 74.0921 37.0116 73.9517 36.761C73.9347 36.7302 73.9202 36.6981 73.9032 36.6678C73.8333 36.5344 73.7628 36.3933 73.6923 36.2605C73.5594 37.8987 73.324 39.5596 72.979 41.2457C70.9486 51.2487 67.4601 60.5863 63.2809 68.066C63.1015 68.3858 62.9284 68.7 62.7489 69.006C62.5601 69.3277 62.3806 69.6418 62.1924 69.9541C61.8782 70.1191 61.5565 70.2847 61.2436 70.4332C60.8904 70.6216 60.5378 70.7928 60.1771 70.9659C58.6403 71.7271 57.0802 72.4487 55.505 73.1215C55.199 73.2551 54.9018 73.381 54.6028 73.5065C54.3056 73.6316 54.0072 73.7494 53.7094 73.8741C52.1651 74.5017 50.6125 75.089 49.0537 75.6375C48.7634 75.7327 48.4732 75.834 48.183 75.9365C47.8928 76.0298 47.6025 76.1242 47.3123 76.2255C42.5854 77.7631 38.7279 78.8839 31.7201 79.6676C31.5161 79.4962 31.3039 79.3157 31.1006 79.1349C30.9048 78.9542 30.7165 78.783 30.5201 78.6017C22.775 71.4607 15.0614 59.3473 10.2168 45.6359C9.69172 44.1456 9.24472 42.6572 8.89908 41.1827C8.39794 41.9823 7.93519 42.7983 7.51211 43.63C7.77087 44.507 8.0523 45.4016 8.36646 46.2862C13.0776 59.6218 20.2901 71.2876 27.8085 78.7277C28.0037 78.9311 28.2001 79.12 28.3959 79.3081C28.5923 79.5038 28.7957 79.6923 28.9915 79.8715C28.7252 79.888 28.4664 79.8961 28.2077 79.9037C27.9099 79.9037 27.6121 79.9111 27.3219 79.9111H27.2438C18.2521 79.9111 10.961 76.728 6.72011 70.9509C2.43142 65.1169 1.58525 57.0581 4.33715 48.2707C4.84648 46.6476 5.48928 45.0629 6.25737 43.5198C6.38265 43.2528 6.51612 42.9941 6.65777 42.7353C6.79061 42.4772 6.93164 42.226 7.07267 41.9747C7.52723 41.16 8.01326 40.3592 8.54651 39.5753C8.69572 39.3487 8.84494 39.122 9.00926 38.8941C9.16539 38.6675 9.32279 38.4389 9.48711 38.2198C11.855 34.9818 14.7787 31.9943 18.1577 29.3374C18.4007 29.1416 18.6519 28.9534 18.8943 28.7651C19.1455 28.5769 19.3885 28.3886 19.6391 28.2079C19.561 28.5064 19.4823 28.8048 19.4118 29.1019C19.3413 29.3928 19.279 29.6824 19.2236 29.9809C18.8943 31.5165 18.6909 33.1075 18.5965 34.7551C17.3348 50.5121 29.8232 67.7367 47.3595 74.9796C48.8887 74.471 50.4092 73.9213 51.9302 73.3256C51.5531 73.1997 51.1691 73.0669 50.7863 72.9258C33.2802 66.7646 20.518 50.1129 21.7249 34.966C21.8816 32.175 22.4149 29.5414 23.2768 27.1345C23.3788 26.8285 23.489 26.5294 23.6143 26.2404C23.7314 25.9263 23.8642 25.6203 24.0065 25.3155C24.3043 25.1349 24.6021 24.9617 24.8992 24.7823C25.2134 24.6091 25.5351 24.4291 25.848 24.2559C34.1975 19.6548 44.1612 16.7467 54.5562 16.2292C54.9403 16.2122 55.3325 16.1971 55.7172 16.1819C56.0924 16.1744 56.4695 16.1662 56.8454 16.1587C57.191 16.1498 57.5278 16.1498 57.8728 16.1498C59.448 16.1498 61.0314 16.2122 62.5922 16.323C62.7326 16.3305 62.8818 16.3456 63.0228 16.3545C63.235 16.3702 63.4383 16.3853 63.6423 16.4086C63.9873 16.4401 64.3317 16.4709 64.6767 16.5112C65.9623 16.6441 67.2171 16.8078 68.4397 17.0036C68.6909 17.0439 68.9415 17.0835 69.1927 17.1295C69.4433 17.1692 69.6938 17.2164 69.945 17.263C70.0709 17.4833 70.1887 17.7018 70.2982 17.9228C70.4235 18.1419 70.5331 18.3685 70.6432 18.5965C71.6619 20.6666 72.4375 22.8607 72.9632 25.1745V25.1821C73.8723 26.3506 74.7355 27.5657 75.5577 28.8123C75.1976 25.3861 74.3508 22.1323 73.0413 19.1215C72.9557 18.8936 72.8531 18.667 72.736 18.4479C72.6497 18.22 72.5402 18.0009 72.43 17.7805C72.673 17.8277 72.916 17.8907 73.1597 17.9455C73.4027 18.0084 73.6451 18.0714 73.8881 18.1343C83.2166 20.5318 89.9587 24.9542 92.6559 30.7018C95.0388 35.7902 94.1215 41.5825 89.9984 47.4548ZM62.623 72.7849C62.9598 72.6122 63.3048 72.4403 63.6347 72.2598C63.9873 72.079 64.3405 71.8983 64.6849 71.7025C69.459 69.1545 74.014 66.2622 78.1214 63.1494C78.3883 62.9454 78.6546 62.7421 78.9134 62.5305C79.1728 62.3347 79.4315 62.1389 79.6815 61.9349C79.611 62.2491 79.5247 62.5614 79.4315 62.8749C79.3365 63.2042 79.2351 63.5335 79.1174 63.8552C78.326 66.106 77.1651 68.0735 75.6358 69.7275C72.469 73.1449 67.9298 74.9961 62.4902 75.089C62.3404 75.0974 62.1842 75.0974 62.035 75.0974H61.7372C61.5181 75.089 61.2902 75.089 61.0629 75.074L62.623 72.7849ZM58.5308 75.3881C58.272 75.725 58.0133 76.0543 57.7551 76.3753C57.3704 76.8534 56.9858 77.3078 56.6024 77.7479C56.4538 77.9193 56.3046 78.0917 56.1478 78.2579C55.991 78.4367 55.8336 78.6099 55.6693 78.7737C52.0083 82.6784 48.183 85.0544 44.561 85.3441C44.3104 85.3591 44.0674 85.3667 43.8156 85.3667C41.4798 85.3667 38.9401 84.5294 36.3141 82.992C36.0554 82.8432 35.7966 82.6858 35.5379 82.5223C35.2942 82.3641 35.0594 82.208 34.8164 82.0444C35.0909 81.9964 35.3572 81.9568 35.6317 81.9096C35.9377 81.8636 36.2518 81.8157 36.5572 81.7535C41.4175 80.9143 46.4346 79.5191 51.4052 77.6849C51.7105 77.5747 52.0165 77.4572 52.3137 77.3482C52.6203 77.2297 52.9174 77.1121 53.2234 76.9943C54.4932 76.5012 55.7556 75.9837 57.0097 75.4267C57.4095 75.2548 57.8099 75.0817 58.2021 74.9016C58.2487 74.8783 58.2877 74.863 58.335 74.8379C58.6403 74.7051 58.9305 74.5723 59.2365 74.4311C59.127 74.5962 59.0086 74.7528 58.8921 74.909C58.7656 75.074 58.6485 75.2302 58.5308 75.3881ZM95.1414 29.5339C91.8173 22.4534 83.6567 17.3102 72.2027 14.9032C71.944 14.8478 71.6852 14.7943 71.4182 14.7395C71.1601 14.6917 70.8932 14.6369 70.6269 14.5909C70.4865 14.3624 70.3366 14.1357 70.1799 13.9154C70.0237 13.6812 69.867 13.4533 69.6938 13.2266C69.357 12.755 69.0038 12.2929 68.6355 11.8472C62.3957 4.21075 52.7846 -7.19716e-06 41.5661 -7.19716e-06C40.5707 -7.19716e-06 39.5433 0.0402798 38.5246 0.10261C26.4751 0.894646 16.692 6.10836 10.9767 14.7773C6.89261 20.9789 5.23808 28.3962 6.06975 36.3058C6.63386 35.5144 7.22943 34.7381 7.85649 33.9788C7.55115 27.3227 9.15029 21.1123 12.6155 15.8602C17.9852 7.70691 27.2362 2.80675 38.6574 2.06256C39.6301 2.00023 40.6104 1.95993 41.5661 1.95993C52.048 1.95993 61.0315 5.8093 66.896 12.818C66.9665 12.9049 67.0446 12.9987 67.1151 13.0843C67.2246 13.2191 67.3266 13.3519 67.4286 13.4854C67.6093 13.7045 67.7818 13.9311 67.9461 14.159C67.6722 14.1118 67.3971 14.0734 67.1233 14.0413C66.8481 14.0029 66.5667 13.9632 66.284 13.9311C65.2887 13.8147 64.2769 13.712 63.2425 13.6264C62.3567 13.5559 61.4709 13.5005 60.5762 13.4608C60.5693 13.4608 60.5693 13.4608 60.5693 13.4608C60.1928 13.4457 59.8163 13.43 59.4405 13.43C59.0558 13.4149 58.6718 13.4054 58.2877 13.4149C58.1467 13.4054 58.0132 13.4054 57.8728 13.4054C55.787 13.4054 53.7094 13.5005 51.6557 13.6894C51.1779 13.7271 50.707 13.7744 50.2291 13.8298C49.7192 13.8845 49.2174 13.9475 48.7162 14.0105C41.833 14.9202 35.2401 16.8248 29.2427 19.5365C28.7881 19.7329 28.3405 19.9362 27.9023 20.1566C27.4868 20.3524 27.0719 20.5564 26.6633 20.7598C26.9302 20.3908 27.2123 20.0389 27.5101 19.6945C27.8243 19.3098 28.1611 18.9408 28.5143 18.5807C32.378 14.5909 37.6148 12.23 43.5341 12.23C45.2579 12.23 47.0309 12.4352 48.7786 12.818C51.2094 12.5051 53.6779 12.3093 56.1704 12.2545C54.0154 11.164 51.8125 10.3248 49.5857 9.78459C47.5559 9.33002 45.5173 9.09392 43.5341 9.09392C34.2913 9.09392 26.499 14.064 22.187 21.8886C21.9988 22.2173 21.8187 22.5472 21.6619 22.8928C21.4976 23.2051 21.3408 23.5344 21.1998 23.8637C20.8932 24.0601 20.596 24.2477 20.2976 24.4517C19.9998 24.64 19.7178 24.8364 19.4282 25.0322C15.4536 27.7622 11.9406 30.9058 9.05585 34.3553C8.86823 34.5744 8.68754 34.8011 8.51566 35.0214C8.32742 35.2481 8.14674 35.476 7.97423 35.7027C7.37865 36.4639 6.8221 37.2477 6.28885 38.0397C6.1239 38.2828 5.96775 38.5245 5.81099 38.7682C5.64604 39.0194 5.48928 39.2782 5.33252 39.5294C3.79571 42.0528 2.57369 44.7034 1.71809 47.4472C-1.30767 57.0983 -0.3123 66.0185 4.50965 72.5814C9.28376 79.0796 17.3581 82.655 27.2438 82.655C28.231 82.655 29.2509 82.6228 30.2702 82.5525C30.5598 82.5296 30.8418 82.5065 31.1321 82.4819H31.1636C31.4305 82.4593 31.6962 82.4271 31.9625 82.3963C32.1904 82.5695 32.4177 82.7407 32.6449 82.9138C32.8886 83.0857 33.131 83.2581 33.3664 83.4155C36.9884 85.9322 40.5474 87.3266 43.8156 87.3266C44.114 87.3266 44.42 87.319 44.7102 87.2964C49.0222 86.9513 53.576 83.972 57.8489 79.1268C58.0057 78.9542 58.1618 78.7737 58.3192 78.5941C58.4684 78.4141 58.617 78.241 58.7656 78.0521C58.9935 78.0772 59.2132 78.0998 59.4405 78.1151C59.6911 78.1396 59.9423 78.1628 60.1928 78.1699C60.8123 78.2176 61.4231 78.2334 62.035 78.2334C68.5732 78.2334 74.077 76.0298 77.9338 71.8599C80.7001 68.8731 82.4642 65.0388 83.1549 60.563C83.2015 60.2722 83.2405 59.9825 83.2795 59.6841C83.311 59.4027 83.3425 59.1206 83.3664 58.8297C83.5786 58.6339 83.7895 58.4457 84.0004 58.2493C84.2056 58.061 84.409 57.8746 84.6124 57.6788C87.584 54.8872 90.1703 51.9854 92.2404 49.03C96.9672 42.304 97.9708 35.5623 95.1414 29.5339Z" fill="black"/>
</g>
<path d="M123.63 39.7397C123.63 44.1689 124.572 47.5287 126.46 49.818C128.346 52.1082 131.087 53.2529 134.682 53.2529C138.306 53.2529 141.042 52.1115 142.893 49.8295C144.742 47.5474 145.666 44.1836 145.666 39.7397C145.666 35.3391 144.746 32.0022 142.904 29.7276C141.061 27.4529 138.336 26.3155 134.727 26.3155C131.102 26.3155 128.346 27.4602 126.46 29.7496C124.572 32.0398 123.63 35.3693 123.63 39.7397ZM149.693 39.7397C149.693 44.9745 148.369 49.0909 145.722 52.0894C143.075 55.0872 139.395 56.5865 134.682 56.5865C129.864 56.5865 126.147 55.1133 123.529 52.1671C120.911 49.2224 119.603 45.0636 119.603 39.6948C119.603 34.37 120.915 30.2423 123.541 27.3115C126.165 24.3808 129.894 22.915 134.727 22.915C139.425 22.915 143.094 24.4061 145.734 27.3891C148.373 30.373 149.693 34.4893 149.693 39.7397Z" fill="black"/>
<path d="M167.3 34.3251C164.794 34.3251 162.982 35.0188 161.864 36.4061C160.745 37.7927 160.171 40.0003 160.141 43.0283V43.856C160.141 47.3015 160.715 49.7666 161.864 51.2495C163.012 52.7349 164.854 53.476 167.389 53.476C169.507 53.476 171.166 52.6189 172.367 50.9031C173.568 49.1881 174.168 46.8235 174.168 43.8111C174.168 40.7537 173.568 38.4087 172.367 36.7754C171.166 35.1421 169.478 34.3251 167.3 34.3251ZM167.836 56.5865C166.241 56.5865 164.783 56.2915 163.463 55.7024C162.143 55.1133 161.036 54.2072 160.141 52.9841H159.873C160.052 54.4156 160.141 55.7735 160.141 57.0555V67.1461H156.427V31.6182H159.448L159.963 34.9738H160.141C161.095 33.6314 162.207 32.6624 163.474 32.0651C164.741 31.4687 166.196 31.1705 167.836 31.1705C171.088 31.1705 173.598 32.2825 175.365 34.504C177.132 36.7264 178.016 39.8435 178.016 43.856C178.016 47.8832 177.118 51.0117 175.32 53.2415C173.523 55.4712 171.028 56.5865 167.836 56.5865Z" fill="black"/>
<path d="M193.856 34.2802C191.887 34.2802 190.317 34.9224 189.146 36.2043C187.975 37.4879 187.286 39.2625 187.076 41.529H199.896C199.896 39.1882 199.373 37.3939 198.33 36.1479C197.285 34.9036 195.795 34.2802 193.856 34.2802ZM194.862 56.5865C191.238 56.5865 188.378 55.4827 186.282 53.275C184.187 51.0681 183.139 48.0025 183.139 44.0799C183.139 40.1278 184.112 36.9871 186.059 34.6609C188.005 32.3339 190.619 31.1705 193.901 31.1705C196.972 31.1705 199.404 32.1812 201.194 34.2017C202.983 36.2231 203.879 38.8892 203.879 42.2007V44.5497H186.987C187.062 47.4282 187.789 49.6138 189.169 51.1049C190.548 52.596 192.491 53.342 194.997 53.342C197.636 53.342 200.246 52.7905 202.826 51.6866V54.9981C201.514 55.5644 200.272 55.9704 199.102 56.2172C197.931 56.4631 196.518 56.5865 194.862 56.5865Z" fill="black"/>
<path d="M226.989 56.1387V40.2765C226.989 38.2772 226.534 36.786 225.624 35.8015C224.714 34.8178 223.289 34.3251 221.351 34.3251C218.786 34.3251 216.907 35.0188 215.714 36.4061C214.52 37.7927 213.923 40.082 213.923 43.2743V56.1387H210.21V31.6182H213.23L213.834 34.9738H214.013C214.774 33.7662 215.84 32.8299 217.212 32.1664C218.585 31.5022 220.113 31.1705 221.798 31.1705C224.751 31.1705 226.974 31.8829 228.465 33.307C229.956 34.732 230.703 37.0099 230.703 40.1425V56.1387H226.989Z" fill="black"/>
<path d="M262.718 56.1387H260.413V40.0526H241.307V56.1387H239.025V23.4297H241.307V37.9495H260.413V23.4297H262.718V56.1387Z" fill="black"/>
<path d="M273.345 31.82V47.5695C273.345 50.0166 273.859 51.7945 274.888 52.9057C275.917 54.0177 277.513 54.5725 279.675 54.5725C282.569 54.5725 284.697 53.842 286.062 52.3795C287.427 50.9186 288.109 48.5393 288.109 45.2434V31.82H290.303V56.1387H288.423L288.021 52.7823H287.886C286.305 55.3184 283.493 56.5865 279.452 56.5865C273.918 56.5865 271.151 53.6255 271.151 47.7043V31.82H273.345Z" fill="black"/>
<path d="M308.67 33.3634C305.805 33.3634 303.755 34.1837 302.517 35.8244C301.279 37.465 300.661 40.1719 300.661 43.9451V44.3258C300.661 47.9952 301.306 50.6277 302.596 52.2234C303.885 53.8199 305.896 54.6174 308.625 54.6174C311.279 54.6174 313.278 53.6884 314.62 51.8321C315.962 49.9749 316.633 47.3317 316.633 43.9001C316.633 36.8759 313.979 33.3634 308.67 33.3634ZM308.715 31.3494C312.115 31.3494 314.677 32.4205 316.399 34.5596C318.123 36.7003 318.983 39.8288 318.983 43.9451C318.983 47.987 318.078 51.1049 316.265 53.297C314.453 55.4892 311.906 56.5865 308.625 56.5865C306.894 56.5865 305.336 56.2286 303.949 55.5121C302.562 54.7963 301.466 53.7824 300.661 52.4694H300.458L299.833 56.1387H298.445V21.3266H300.661V30.074C300.661 31.387 300.63 32.5946 300.57 33.6984L300.503 35.6005H300.661C301.584 34.1388 302.7 33.0652 304.004 32.3789C305.31 31.6926 306.88 31.3494 308.715 31.3494Z" fill="black"/>
</svg>
