<svg width="229" height="249" viewBox="0 0 229 249" fill="none" xmlns="http://www.w3.org/2000/svg">
<g clip-path="url(#clip0_3_360)">
<path d="M101.678 92.3867C101.678 92.3867 101.652 92.3867 101.626 92.3867C101.626 92.3867 101.626 92.3867 101.575 92.361C101.266 92.207 69.3971 75.239 75.8532 43.5621C79.6857 35.8354 82.3351 26.6199 83.1067 15.5817C83.2096 14.1699 82.1293 12.9377 80.7146 12.835C79.2999 12.758 78.0653 13.8105 77.9624 15.2223C73.9241 73.7502 14.8414 77.7804 12.3207 77.9087C10.906 77.9857 9.82569 79.1922 9.90285 80.6298C9.98002 81.9903 11.1118 83.0427 12.475 83.0427C12.5265 83.0427 12.5779 83.0427 12.6293 83.0427C13.1181 83.0171 49.5142 80.5784 69.8858 53.3168C70.7603 81.0148 97.4594 95.9548 99.1056 96.8533C102.269 98.6758 103.504 100.473 102.81 102.218C101.215 106.223 92.3408 109.663 86.9907 108.405C86.8878 108.405 86.7849 108.405 86.682 108.405C86.5791 108.405 86.4763 108.353 86.3734 108.353C86.2962 108.353 86.2448 108.379 86.1676 108.405C85.9875 108.405 85.8332 108.456 85.6789 108.507C85.5246 108.559 85.3702 108.61 85.2159 108.687C85.0616 108.764 84.9587 108.841 84.8301 108.944C84.7015 109.047 84.5729 109.149 84.4442 109.278C84.3414 109.406 84.2642 109.534 84.187 109.663C84.1099 109.817 84.0327 109.971 83.9555 110.15C83.9555 110.227 83.8784 110.279 83.8784 110.33C83.8784 110.433 83.8784 110.535 83.8784 110.638C83.8784 110.741 83.8269 110.843 83.8269 110.946V125.578C83.8269 125.578 83.8784 125.732 83.8784 125.835C83.8784 126.014 83.9298 126.169 83.9813 126.348C84.0327 126.502 84.0841 126.656 84.1613 126.785C84.2385 126.939 84.3156 127.041 84.4185 127.17C84.5214 127.298 84.65 127.426 84.8044 127.529C84.8815 127.58 84.9072 127.657 84.9844 127.709C88.7912 130.199 89.7429 131.919 89.6915 132.535C89.6915 132.894 89.0999 133.51 87.9167 134.101C87.9167 134.101 87.8909 134.126 87.8652 134.152C87.8652 134.152 87.8395 134.152 87.8138 134.152C79.0941 138.927 70.2459 139.029 70.143 139.029C70.0401 139.029 69.9372 139.081 69.8343 139.081C69.7314 139.081 69.6028 139.081 69.5 139.081C69.3713 139.106 69.2685 139.158 69.1656 139.209C66.3362 140.03 64.69 141.442 64.4071 143.445C63.8926 146.807 67.6737 149.4 68.8569 150.119L85.113 159.796C85.113 159.796 85.113 159.796 85.1387 159.796C86.0133 160.31 86.2705 160.695 86.2705 160.797C86.1676 162.415 80.7146 166.188 75.0558 168.55C74.7472 168.678 74.4642 168.884 74.2327 169.115C74.1299 169.217 74.0784 169.371 73.9755 169.5C73.8726 169.654 73.744 169.782 73.6669 169.962C73.5383 170.27 73.4611 170.603 73.4611 170.937V186.211C73.4611 203.153 56.9735 203.461 56.279 203.461C56.2533 203.461 56.2276 203.461 56.2019 203.461C56.2019 203.461 56.1504 203.461 56.1247 203.461C30.3516 204.899 4.06403 190.575 3.80682 190.446C2.57218 189.753 1.00315 190.215 0.308669 191.448C-0.385816 192.68 0.0771738 194.246 1.31181 194.939C2.08346 195.375 15.0472 202.409 31.9463 206.259C15.0986 217.4 14.8671 245.124 14.8671 246.459C14.8671 247.87 16.0246 249.026 17.4393 249.026C18.854 249.026 20.0115 247.87 20.0115 246.459C20.0115 246.125 20.2687 213.832 40.6402 207.851C44.447 208.39 48.3567 208.724 52.3179 208.724C53.6297 208.724 54.9415 208.672 56.279 208.621C56.279 208.621 56.3562 208.621 56.3819 208.621C56.3819 208.621 56.4076 208.621 56.4333 208.621C64.1756 208.57 78.6054 203.846 78.6054 186.237V172.631C82.8752 170.68 91.0804 166.291 91.3891 161.157C91.492 159.565 90.9261 157.281 87.7366 155.432L71.5062 145.78C70.9661 145.447 70.2716 144.882 69.8343 144.42C70.0144 144.343 70.2716 144.266 70.5545 144.189C72.4579 144.138 81.2548 143.624 90.2059 138.747C90.2059 138.747 90.2059 138.747 90.2316 138.747C90.2316 138.747 90.2831 138.721 90.3088 138.696C93.8584 136.924 94.7329 134.563 94.8358 132.894C95.0158 130.019 93.061 127.195 88.9713 124.269V113.847C89.0999 113.847 89.2285 113.847 89.3571 113.847C96.4048 113.847 105.305 109.945 107.594 104.169C108.417 102.141 109.446 96.9303 101.678 92.4637V92.3867Z" fill="black"/>
<path d="M80.4317 56.3202C79.4285 57.3213 79.4028 58.9386 80.4317 59.9397C80.9204 60.4531 81.5891 60.7098 82.2579 60.7098C82.9267 60.7098 83.5697 60.4531 84.0584 59.9654C84.9072 59.1439 104.43 39.4036 95.9933 2.00227C95.6846 0.616083 94.2956 -0.256701 92.9324 0.0513405C91.5434 0.359382 90.6689 1.74557 90.9775 3.13175C98.7712 37.6067 81.2033 55.5758 80.4574 56.3202H80.4317Z" fill="black"/>
<path d="M218.583 110.997C217.58 109.971 216.551 109.047 215.47 108.174V51.6226C215.47 50.2107 214.313 49.0555 212.898 49.0555C211.484 49.0555 210.326 50.2107 210.326 51.6226V104.785C205.928 102.526 201.143 101.448 196.231 101.756C188.025 102.295 180.592 106.608 175.293 113.873C170.097 121.009 167.602 130.147 168.22 139.645C168.966 150.735 173.904 155.612 178.688 160.31C183.344 164.879 187.742 169.217 188.463 179.999C188.746 184.44 190.598 188.496 193.633 191.473C196.514 194.297 200.14 195.786 203.921 195.786C204.23 195.786 204.564 195.786 204.873 195.76C206.828 195.632 208.654 195.093 210.326 194.246V246.433C210.326 247.845 211.484 249 212.898 249C214.313 249 215.47 247.845 215.47 246.433V189.959C217.965 186.75 219.354 182.54 219.046 177.971C218.943 176.559 217.785 175.506 216.319 175.583C214.904 175.686 213.824 176.893 213.927 178.304C214.339 184.722 210.146 190.241 204.539 190.626C201.915 190.832 199.291 189.805 197.234 187.777C195.099 185.697 193.813 182.797 193.607 179.639C192.758 166.907 187.202 161.439 182.315 156.639C177.84 152.224 173.956 148.424 173.364 139.286C172.824 130.969 174.984 123.011 179.46 116.85C183.833 110.843 189.929 107.275 196.565 106.839C203.227 106.403 209.709 109.124 214.853 114.514C220.126 120.033 223.315 127.632 223.856 135.949C223.959 137.361 225.27 138.413 226.582 138.336C227.997 138.233 229.077 137.027 228.974 135.615C228.357 126.117 224.653 117.364 218.557 110.997H218.583Z" fill="black"/>
<path d="M194.096 124.526C200.706 122.6 208.011 127.657 210.455 135.821C210.866 137.181 212.281 137.977 213.644 137.566C215.007 137.155 215.779 135.744 215.393 134.383C212.178 123.499 201.967 116.85 192.655 119.597C188.643 120.778 185.247 123.602 183.113 127.529C180.463 132.406 179.923 138.516 181.672 144.317C183.498 150.504 187.022 152.711 190.135 154.662C193.041 156.485 195.562 158.051 197.105 163.236C197.44 164.34 198.468 165.084 199.574 165.084C199.806 165.084 200.063 165.059 200.295 164.982C201.658 164.571 202.43 163.159 202.044 161.799C199.96 154.765 196.025 152.326 192.861 150.35C190.083 148.604 187.871 147.244 186.585 142.931C185.247 138.413 185.608 133.716 187.614 130.045C189.131 127.272 191.369 125.373 194.096 124.577V124.526Z" fill="black"/>
<path d="M111.169 132.021C110.14 133.022 110.14 134.64 111.143 135.641C122.101 146.782 111.581 157.845 111.143 158.308C110.14 159.309 110.166 160.952 111.169 161.927C111.658 162.415 112.327 162.671 112.97 162.671C113.613 162.671 114.307 162.415 114.796 161.901C119.863 156.742 126.396 143.855 114.796 132.047C113.793 131.02 112.172 131.02 111.169 132.021Z" fill="black"/>
<path d="M127.605 120.958C126.602 119.956 124.956 119.982 123.978 120.958C123.001 121.933 123.001 123.602 123.978 124.603C130.589 131.123 133.958 138.233 133.984 145.703C133.984 158.564 124.081 168.55 123.978 168.653C122.975 169.654 122.95 171.271 123.978 172.272C124.467 172.785 125.136 173.042 125.805 173.042C126.473 173.042 127.117 172.785 127.605 172.298C128.068 171.836 139.129 160.772 139.129 145.729C139.129 136.822 135.245 128.479 127.605 120.932V120.958Z" fill="black"/>
<path d="M136.839 106.762C135.81 107.763 135.81 109.38 136.814 110.381C170.123 144.266 138.177 177.663 136.814 179.075C135.81 180.076 135.836 181.719 136.865 182.694C137.354 183.182 138.022 183.439 138.666 183.439C139.309 183.439 140.003 183.182 140.492 182.668C140.878 182.283 177.377 144.292 140.492 106.788C139.489 105.786 137.868 105.761 136.865 106.762H136.839Z" fill="black"/>
</g>
<defs>
<clipPath id="clip0_3_360">
<rect width="229" height="249" fill="white"/>
</clipPath>
</defs>
</svg>
