<svg width="258" height="258" viewBox="0 0 258 258" fill="none" xmlns="http://www.w3.org/2000/svg">
<path d="M53.1698 228.9C52.9066 229.792 52.0908 230.369 51.2059 230.369C51.0139 230.369 50.8188 230.342 50.6257 230.285C29.219 223.975 21.9459 207.267 21.6468 206.559C21.207 205.517 21.6945 204.316 22.7366 203.876C23.7797 203.435 24.9779 203.922 25.4189 204.962C25.5013 205.153 32.3294 220.621 51.7835 226.356C52.8692 226.676 53.4898 227.815 53.1698 228.9ZM45.7133 105.318C45.6206 104.191 44.6272 103.347 43.5042 103.445C26.4917 104.847 10.8557 125.743 10.7369 125.951C10.1746 126.933 10.5151 128.184 11.4973 128.746C11.8179 128.929 12.1676 129.016 12.5123 129.016C13.1862 129.016 13.8432 128.683 14.2313 128.085C14.639 127.538 29.2149 108.733 43.8396 107.528C44.9677 107.434 45.8065 106.445 45.7133 105.318ZM56.762 213.821C37.7263 206.751 31.9889 190.821 31.9331 190.661C31.5644 189.594 30.4025 189.028 29.3322 189.393C28.2619 189.76 27.6925 190.925 28.0602 191.995C28.3096 192.722 34.4146 209.891 55.3364 217.661C55.5714 217.748 55.8126 217.789 56.0492 217.789C56.8814 217.789 57.6633 217.279 57.97 216.454C58.3628 215.393 57.8231 214.214 56.762 213.821ZM46.4184 87.9632C47.5419 87.8322 48.3475 86.8158 48.2169 85.692C48.0858 84.5686 47.0637 83.7663 45.9453 83.8938C13.9901 87.6115 0.778861 112.317 0.231954 113.366C-0.290373 114.369 0.099324 115.603 1.10096 116.127C1.4036 116.285 1.72724 116.36 2.04678 116.36C2.7847 116.36 3.49803 115.96 3.86417 115.261C3.98963 115.023 16.6842 91.4218 46.4184 87.9632ZM208.651 203.323C209.156 202.311 208.746 201.081 207.734 200.575C206.723 200.07 205.492 200.479 204.986 201.491C194.161 223.137 175.039 227.886 174.847 227.931C173.747 228.19 173.064 229.289 173.32 230.39C173.54 231.336 174.382 231.974 175.313 231.974C175.467 231.974 175.623 231.957 175.78 231.92C176.637 231.72 196.93 226.759 208.651 203.323ZM257.926 117.113C250.017 88.3933 221.021 77.8557 219.79 77.4216C218.725 77.0442 217.553 77.6038 217.176 78.6703C216.799 79.7368 217.359 80.9068 218.425 81.2836C218.706 81.3829 246.628 91.5217 253.976 118.2C254.226 119.109 255.051 119.705 255.949 119.705C256.13 119.705 256.312 119.681 256.494 119.631C257.585 119.33 258.226 118.203 257.926 117.113ZM225.498 133.566C214.168 148.148 200.148 171.21 196.121 177.931C193.936 181.578 191.08 184.74 187.634 187.328C180.296 192.838 174.925 197.559 170.186 201.725C164.267 206.927 159.615 211.011 154.19 213.76C152.969 216.126 145.535 232.141 154.505 255.209C154.914 256.263 154.392 257.45 153.338 257.86C153.093 257.955 152.842 257.999 152.596 257.999C151.776 257.999 151.002 257.503 150.687 256.693C143.346 237.812 146.44 222.996 148.899 215.912C144.971 217.139 140.464 217.787 134.823 217.787C133.578 217.787 132.281 217.755 130.921 217.692C129.791 217.64 128.917 216.681 128.97 215.551C129.022 214.422 129.974 213.554 131.111 213.6C149.501 214.46 155.134 209.501 167.481 198.648C172.038 194.642 177.71 189.656 185.174 184.052C188.194 181.784 190.695 179.016 192.607 175.826C196.665 169.055 210.793 145.816 222.263 131.053C223.555 129.391 223.908 127.214 223.207 125.23C222.498 123.223 220.904 121.791 218.833 121.303C210.455 119.327 201.738 124.412 192.182 136.844C186.961 143.636 180.242 148.534 171.64 151.819C170.167 152.382 168.682 152.934 167.189 153.489C151.078 159.48 134.418 165.676 124.173 188.533C123.71 189.566 122.498 190.028 121.466 189.565C120.434 189.102 119.972 187.89 120.434 186.858C131.381 162.435 149.646 155.642 165.761 149.65C166.723 149.292 167.674 148.933 168.628 148.575C167.958 141.614 171.914 132.894 172.097 132.495L207.171 53.1386C210.649 43.774 207.543 38.6258 203.821 37.0621C199.738 35.349 193.668 37.2265 190.456 44.0828L151.735 118.824C154.123 120.228 156.551 121.791 159.019 123.549C159.941 124.205 160.157 125.484 159.5 126.405C159.101 126.966 158.47 127.265 157.83 127.265C157.418 127.265 157.004 127.142 156.644 126.886C140.454 115.363 123.459 110.448 107.492 112.676C95.4142 114.36 88.0438 119.559 87.9711 119.611C87.0529 120.269 85.7737 120.06 85.1136 119.143C84.4541 118.226 84.6599 116.949 85.5755 116.288C85.6733 116.217 86.4522 115.664 87.842 114.877V46.4144C87.6034 38.9371 83.7013 34.9061 79.9641 34.7888C76.3846 34.6803 72.4702 38.2679 71.6873 46.5414C71.3252 52.3148 69.6922 69.1951 67.8011 88.7338C65.1054 116.59 61.7508 151.256 60.3855 171.049C57.8343 201.751 75.4311 211.882 84.8847 217.325C86.0543 217.998 87.0652 218.58 87.8988 219.127C88.8447 219.747 89.1084 221.017 88.4878 221.963C88.094 222.563 87.44 222.888 86.7728 222.888C86.3872 222.888 85.9975 222.779 85.6513 222.552C84.9175 222.071 83.9548 221.517 82.8405 220.875C79.9283 219.198 76.0518 216.965 72.1548 213.721L73.8488 255.87C73.8944 257 73.0146 257.953 71.8839 257.998C71.8563 257.999 71.8286 258 71.8004 258C70.7071 258 69.7997 257.136 69.7552 256.034L67.8932 209.708C60.7076 202.018 54.6942 190.073 56.3012 170.739C57.6679 150.919 61.0262 116.221 63.7238 88.3401C65.6145 68.8019 67.2475 51.9277 67.6008 46.2552C67.6024 46.2342 67.6039 46.2132 67.606 46.1917C68.6301 35.2486 74.6097 30.531 80.0931 30.6953C85.7476 30.873 91.6319 36.2967 91.9382 46.3202C91.9387 46.3412 91.9392 46.3617 91.9392 46.3827V112.832C92.9777 112.374 94.1355 111.905 95.4065 111.448L111.414 21.5125C113.466 12.0215 121.446 7.30485 127.655 8.38621C133.103 9.33035 138.344 14.7525 136.719 27.1389C136.716 27.161 136.713 27.1835 136.709 27.2055L123.281 108.619C124.17 108.737 125.071 108.872 125.99 109.033C137.249 70.8505 153.673 16.5082 153.838 15.9572C156.3 7.39804 160.948 1.68661 166.584 0.313919C170.393 -0.612812 174.165 0.534594 176.935 3.46122C180.833 7.57929 181.869 14.3009 179.706 21.4403L156.836 100.073L186.763 42.3071C191.065 33.1668 199.576 30.8356 205.406 33.2861C210.81 35.5563 215.514 42.5073 210.987 54.6275C210.973 54.6649 210.958 54.7023 210.942 54.7392L175.83 134.179C175.783 134.283 172.587 141.336 172.633 146.978C179.34 144.011 184.693 139.865 188.933 134.349C199.575 120.505 209.661 114.935 219.772 117.317C223.177 118.119 225.905 120.568 227.07 123.867C228.237 127.172 227.649 130.798 225.498 133.566ZM119.196 108.207L132.661 26.5722C133.695 18.6315 131.509 13.2098 126.954 12.4203C122.596 11.6641 116.926 15.4693 115.424 22.3404L99.8125 110.064C101.904 109.501 104.201 109.008 106.691 108.651C110.277 108.136 114.483 107.889 119.196 108.207ZM175.778 20.274C177.515 14.5375 176.833 9.31243 173.958 6.27572C172.226 4.44632 169.891 3.72286 167.553 4.29221C163.385 5.307 159.818 9.9806 157.767 17.1144C157.593 17.6899 141.265 71.7188 130.012 109.871C135.513 111.186 141.465 113.325 147.758 116.614L175.778 20.274ZM219.817 94.2184C218.758 93.8278 217.581 94.369 217.189 95.4288C216.795 96.4881 217.337 97.6663 218.396 98.0605C218.533 98.1117 232.184 103.307 237.3 115.454C237.629 116.236 238.389 116.707 239.188 116.707C239.453 116.707 239.723 116.656 239.982 116.547C241.025 116.108 241.514 114.907 241.075 113.864C235.258 100.051 220.445 94.4504 219.817 94.2184ZM211.569 219.923C210.537 219.46 209.325 219.919 208.862 220.951C204.507 230.643 190.399 236.81 190.257 236.871C189.218 237.317 188.738 238.521 189.184 239.56C189.516 240.336 190.273 240.801 191.067 240.801C191.336 240.801 191.611 240.747 191.874 240.634C192.513 240.36 207.585 233.788 212.598 222.631C213.062 221.598 212.601 220.386 211.569 219.923Z" fill="black"/>
</svg>
