<svg width="192" height="142" viewBox="0 0 192 142" fill="none" xmlns="http://www.w3.org/2000/svg">
<rect x="87.8333" y="62.6112" width="16.3333" height="78.9445" rx="2" fill="#D9D9D9"/>
<ellipse cx="96" cy="35.0001" rx="35" ry="35" fill="#FF2020"/>
<path d="M191.121 90.1213C192.293 88.9497 192.293 87.0502 191.121 85.8786L172.029 66.7867C170.858 65.6152 168.958 65.6152 167.787 66.7867C166.615 67.9583 166.615 69.8578 167.787 71.0294L184.757 87.9999L167.787 104.971C166.615 106.142 166.615 108.042 167.787 109.213C168.958 110.385 170.858 110.385 172.029 109.213L191.121 90.1213ZM188 87.9999V90.9999H189V87.9999V84.9999H188V87.9999Z" fill="#213C61"/>
<path d="M0.87868 85.8786C-0.292893 87.0502 -0.292893 88.9497 0.87868 90.1213L19.9706 109.213C21.1421 110.385 23.0416 110.385 24.2132 109.213C25.3848 108.042 25.3848 106.142 24.2132 104.971L7.24264 87.9999L24.2132 71.0294C25.3848 69.8578 25.3848 67.9583 24.2132 66.7867C23.0416 65.6152 21.1421 65.6152 19.9706 66.7867L0.87868 85.8786ZM3 87.9999V90.9999H3.0001V87.9999V84.9999H3V87.9999Z" fill="#213C61"/>
</svg>
