<?xml version="1.0" encoding="UTF-8"?>
<svg id="Layer_2" data-name="Layer 2" xmlns="http://www.w3.org/2000/svg" viewBox="0 0 628.6 424.35">
  <defs>
    <style>
      .cls-1 {
        fill: #231f20;
      }
    </style>
  </defs>
  <g id="Layer_2-2" data-name="Layer 2">
    <g>
      <path class="cls-1" d="M426.63,48.01c-5.14-13.44-13.28-30.19-24.4-23.4-8.29,5.06-15.45,11.69-21.35,19.61l-16.6,22.27c-16.21,21.74-27.83,45.89-39.7,70.25-1.98,4.07-5.74,5.78-9.51,6-4.3.25-8.44-1.5-10.79-5.51-6.93-14.47-14.04-28.21-22.21-42.32l14.73-18.92c6.46,9.83,11.23,19.54,17.4,30.45,17.66-32.65,49.54-90.35,82.8-104.08,12.39-5.12,25.03-1.55,34.02,8.21,14.59,15.84,22.58,43.37,27.63,65.2,13.27,57.36,19.57,131.58,22.14,191.07.3,6.93-5.49,11.86-11.49,11.7-6.45-.17-10.89-4.96-11.18-11.81-2.59-60.81-10.76-164.53-31.48-218.71Z"/>
      <path class="cls-1" d="M258.06,113.87c-34.25,49.95-63.28,101.75-87.87,156.39-2.92,6.48-8.63,10.06-15.06,7.49-6.49-2.59-8.98-9.61-5.89-16.49,38.04-84.66,91.74-173.57,154.94-241.67,2.72-2.93,5.14-4.92,8.34-5.35,3.92-.52,7.39.6,10.34,3.48l20.98,23.63-12.94,19.88-16.59-19c-20.38,22.55-38.56,46.08-56.25,71.64Z"/>
      <path class="cls-1" d="M214.6,25.92c-24.64,26.93-34.38,121.23-38.6,162.29l-26.48,51.45c1.47-33.92,4.88-65.4,8.87-97.99,5.28-35.56,11.96-83.34,27.93-114.26,1.13-2.18,2.73-3.66,3.75-6.19,2.22-5.48,6.59-10.07,10.94-13.9,8.09-7.12,18.75-9.07,29.01-5.73,17.01,5.54,33.36,24.96,44.01,39.79l-14.59,17.99c-10.12-12.94-20.74-28.15-34.65-35.58-3.82-2.04-7.39-.95-10.21,2.13Z"/>
      <path class="cls-1" d="M448.47,248.37c-26.39-53.89-56.02-105.19-91.67-153.79l12.85-20.9c28.1,37.46,52.57,76.3,74.91,117.19l3.91,57.5Z"/>
      <path class="cls-1" d="M63.26,373.79l-18.03,31.67c-1.55,2.71-3.37,4.22-6.12,4.36-3.23.16-5.35-1.38-7.04-4.35l-18.17-32.02-.08,42.47c0,4.34-2.49,7.5-6.69,7.67-3.36.14-7.14-2.53-7.14-6.81v-69.79c0-3.24,2.37-5.58,4.78-6.36,2.95-.96,6.33.1,8.03,3.13l25.84,46.07,25.83-46.06c1.57-2.8,4.57-3.86,7.3-3.31s5.52,2.99,5.52,6.54v69.8c0,4.29-3.76,6.94-7.16,6.81-4.01-.16-6.9-3.34-6.59-7.67l-.3-42.13Z"/>
      <path class="cls-1" d="M370.53,374.54l-18.78,32.56c-2.56,3.65-8.78,3.86-11.08-.13l-18.94-32.86-.4,42.73c-.04,3.89-3.01,6.53-6.35,6.76-3.54.25-7.36-2.47-7.37-6.71l-.06-68.99c0-3.49,1.55-5.96,4.46-7.12,2.64-1.05,6.39-.48,8.14,2.63l26.13,46.28,25.9-46.25c1.82-2.71,4.73-3.67,7.46-2.9,2.54.71,5.18,3.02,5.18,6.36v69.98c0,4-3.33,6.59-6.64,6.72-3.58.14-7.09-2.61-7.07-6.75l-.58-42.3Z"/>
      <path class="cls-1" d="M187.61,422.78c-15.92-5.02-18.22-24.76-14.04-40.93,2.83-9.4,10.42-15.14,20.12-15.75,5.81-.37,10.82.88,15.86,4.29l.06-27.55c0-3.59,2.69-5.77,5.62-6.17s7.26,1.41,7.26,5.31l-.04,60.85c0,9.79-6.56,17.64-15.62,20.15-6.36,1.77-12.95,1.77-19.21-.2ZM209.53,399.38c-.36-5.58,1.04-11.26-.55-16.05-1.14-3.45-6.41-5.37-9.6-5.93-6.18-1.09-11.31,2.37-13.19,8.08s-1.86,12.22-.4,18.21c1.69,6.94,7.53,10.33,14.26,9.18,5.88-1.01,9.96-6.09,9.48-13.49Z"/>
      <path class="cls-1" d="M537.69,413.3c2.55,3.36,1.41,7.22-1.11,9.07-2.89,2.11-6.72,1.64-9.02-1.45l-17.63-23.58c-1.91.14-4,2.03-4.02,3.61l-.16,16.98c-.04,3.73-3.35,5.81-6.57,5.72-2.86-.08-6.36-2.03-6.35-5.85l.05-75.81c0-3.68,3.68-5.34,6.29-5.38,2.86-.04,6.49,1.68,6.52,5.3l.3,43.18,23.14-17.61c2.58-1.96,6.66-.22,8.13,2.13,1.32,2.11,1.68,5.94-.91,7.95l-16.21,12.59,17.55,23.15Z"/>
      <path class="cls-1" d="M284.66,410.23c6.34,5.17,15.7,5.27,13.85,10.93-1.8,5.49-11.12.27-18.93-4.8-8.41,7.32-19.1,9.24-29.77,7.27-13.34-2.47-21.09-14.43-17.96-27.79,1.58-6.75,6.28-11.85,12.49-16.32-4.45-9.15-7.21-19.25-4.1-29.07,1.95-6.15,7.24-9.9,12.82-10.67,6.13-.84,12.77.69,16.44,6.2,8.46,12.68-2.32,26.78-15.1,35.59,6.41,9.93,14.91,17.32,23.9,24.14,5.23-7.35,3.46-15.16,8.87-14.86,6.15.34,2.96,10.3-2.51,19.38ZM250.84,375.04c6.48-4.39,11.42-9.68,13.32-16.42,1.54-5.49-1.1-10.84-6.06-11.8-4.63-.9-9.6,1.48-10.72,6.78-1.51,7.14-.33,14.8,3.47,21.44ZM272.96,411.19c-10.38-8.12-18.5-15.37-24.75-25.01-5.39,3.55-8.42,7.74-9.04,12.91s.86,10.56,5.36,13.99c8.51,6.48,21.03,5.24,28.43-1.89Z"/>
      <path class="cls-1" d="M394.87,403.34c1.06-8.37,7.98-14.07,15.93-14.17l19.05-.23c1.11-5.16-1.7-9.53-6.71-10.74-12.57-3.04-18.02,10.02-23.84,3.52-2.5-2.79-1.75-6.57,1.09-9.18,6.78-6.21,15.81-7.23,24.84-6.07,10.33,1.33,17.92,8.89,17.85,19.55l-.18,32.21c-.02,3.26-3.45,5.26-5.82,5.36-3.44.14-5.73-1.78-7.17-5.43-5.24,6.02-12.26,6.74-19.24,5.82-10.21-1.35-17.19-9.6-15.79-20.65ZM429.65,399.01h-14c-4.74,0-8.09,3.06-7.89,7.39.18,3.91,3.56,6.52,7.86,6.85s8.62-.73,11.48-3.48,3.68-6.87,2.55-10.75Z"/>
      <path class="cls-1" d="M563.65,411.46c14.71,4.69,20.7-9.4,26.59-1.6,5.05,6.68-8,15.99-25.56,14.09-9.91-1.07-17.71-6.96-20.48-16.6-2.09-7.27-2.05-15.06-.55-22.36,2.56-12.41,12.83-18.88,24.97-19.07,14.75-.23,24.9,10.03,24.19,25.23-.16,3.41-.55,8.44-5.25,8.47l-31.83.24c-.15,5.21,2.51,9.88,7.91,11.6ZM579.83,388.73c.13-7.77-5.54-12.04-12.07-11.52-6.55.2-11.49,4.71-11.71,11.76l23.77-.24Z"/>
      <path class="cls-1" d="M139.21,377.86c-7.02.17-11.51,4.47-11.58,11.14l-.28,29.69c-.03,3.37-3.7,4.89-6.22,4.92-2.38.03-6.39-1.45-6.4-4.8l-.17-45.92c-.01-3.55,2.96-5.77,5.61-6.01,3.54-.32,6.16,1.19,7.77,5.75,4.41-5.65,10.82-6.83,17.7-6.54,9.79.42,17.39,7.05,17.44,17.19l.18,34.54c.02,3.56-3.41,5.67-6.14,5.8-2.9.14-6.74-1.61-6.77-5.17l-.22-30.53c-.04-6.28-4.43-10.22-10.93-10.06Z"/>
      <path class="cls-1" d="M617.76,407.31c0,6.87,11.12,3.37,10.3,10.9-.42,3.86-3.55,5.69-7.35,5.44-8.41-.56-15.53-6.21-15.66-14.89l-.46-30.22c-3.73.43-5.8-.52-6.93-2.17-1.27-1.84-1.13-4.4-.09-6.13,1.27-2.13,4.03-2.72,7.11-2.41l.21-9.97c.08-3.98,3.16-6.57,6.39-6.64,4.16-.1,6.55,3.28,6.54,7.63l-.03,8.94,6.74.23c2.84.1,4.11,2.94,4.08,5.36-.03,2.15-1.36,4.94-4.16,5.11l-6.71.4.03,28.42Z"/>
      <path class="cls-1" d="M466.91,416.45c-.02,4.28-2.49,6.8-5.88,7.18-2.9.32-7.08-1.96-7.09-5.83l-.17-43.91c-.02-3.85,2.4-6.54,5.52-6.99,3.88-.56,7,1.57,7.73,6.27,3.22-4.07,7.21-6.89,12.6-6.99,3.81-.07,6.54,2.87,6.54,6.21s-2.75,6.25-6.6,6.2c-6.99-.09-12.5,4.81-12.54,11.86l-.11,25.99Z"/>
      <path class="cls-1" d="M103.52,416.43c0,4.51-3.1,7.09-6.42,7.17-3.66.08-6.69-2.58-6.69-6.68l.06-44.06c0-3.92,3.4-6.17,6.6-6.07,3.71.12,6.42,2.88,6.43,7.09l.02,42.54Z"/>
      <path class="cls-1" d="M92.72,345.67c4.11-2.07,9.81-1.14,11.34,2.87,1.36,3.58,1.34,9.17-3.64,11.25-2.81,1.17-7.7,1.16-10.18-2.84-1.77-2.85-1.9-9.07,2.49-11.28Z"/>
    </g>
  </g>
</svg>